<svg viewBox="0 0 100 100" xmlns="http://www.w3.org/2000/svg"><path d="M94.761 27.369c-1.075-4.045-4.24-7.231-8.26-8.312C79.216 17.092 50 17.092 50 17.092s-29.216 0-36.501 1.965c-4.02 1.081-7.186 4.267-8.26 8.312C3.286 34.702 3.286 50 3.286 50s0 15.298 1.952 22.631c1.074 4.045 4.24 7.231 8.26 8.312C20.784 82.908 50 82.908 50 82.908s29.216 0 36.502-1.965c4.02-1.082 7.185-4.267 8.26-8.312C96.714 65.298 96.714 50 96.714 50s0-15.298-1.953-22.631z" fill="red"/><path d="M40.284 35.877v28.246l24.83-14.122z" fill="#f1f1f1"/></svg>