<svg width="34" height="23" viewBox="0 0 34 23" fill="none" xmlns="http://www.w3.org/2000/svg">
<path d="M13.9146 3.81215C13.073 2.49936 11.8287 1.49564 10.3688 0.951855C8.90895 0.408067 7.31229 0.353587 5.81884 0.796607C4.32539 1.23963 3.01584 2.15621 2.08701 3.40859C1.15817 4.66098 0.660246 6.1815 0.668059 7.74163C0.668834 9.03357 1.01596 10.3016 1.67318 11.4132C2.3304 12.5249 3.27359 13.4393 4.40421 14.0611C5.53483 14.6828 6.8114 14.9891 8.10055 14.9477C9.3897 14.9064 10.6441 14.5191 11.7327 13.8263C11.1668 15.5097 10.1126 17.3057 8.37575 19.1059C8.04346 19.4503 7.86133 19.9127 7.86943 20.3916C7.87753 20.8704 8.0752 21.3264 8.41896 21.6592C8.76272 21.9921 9.2244 22.1745 9.70244 22.1664C10.1805 22.1583 10.6357 21.9603 10.968 21.616C17.3882 14.9514 16.5544 7.70701 13.9146 3.82081V3.81215ZM31.1964 3.81215C30.3548 2.49936 29.1106 1.49564 27.6507 0.951855C26.1908 0.408067 24.5941 0.353587 23.1007 0.796607C21.6072 1.23963 20.2977 2.15621 19.3688 3.40859C18.44 4.66098 17.9421 6.1815 17.9499 7.74163C17.9507 9.03357 18.2978 10.3016 18.955 11.4132C19.6122 12.5249 20.5554 13.4393 21.686 14.0611C22.8167 14.6828 24.0932 14.9891 25.3824 14.9477C26.6715 14.9064 27.9259 14.5191 29.0146 13.8263C28.4486 15.5097 27.3944 17.3057 25.6576 19.1059C25.3253 19.4503 25.1432 19.9127 25.1513 20.3916C25.1594 20.8704 25.357 21.3264 25.7008 21.6592C26.0445 21.9921 26.5062 22.1745 26.9843 22.1664C27.4623 22.1583 27.9176 21.9603 28.2499 21.616C34.6701 14.9514 33.8362 7.70701 31.1964 3.82081V3.81215Z" fill="white"/>
</svg>
